#!OML:ASF H:\Terrain\Walking\May29\JustinRory\rory.ASF
:FULLY-SPECIFIED
:DEGREES
1493
root 10.808 18.1988 -10.5755 -360.328 -27.1154 1.23418
lowerback 3.09948 -2.13557 -6.94758
upperback 3.41073 -2.95749 -2.2033
thorax 2.02548 -1.61481 1.64052
lowerneck -2.32487 -11.6778 -9.79585
upperneck 24.2763 -18.6054 11.6508
head 10.1381 -8.73277 3.66129
rclavicle 3.77691e-015 -1.35174e-014
rhumerus 13.9207 -41.685 -46.5194
rradius 23.095
rwrist 25.1657
rhand -5.85513 31.7533
rfingers 7.12502
rthumb 19.9716 2.75961
lclavicle 3.77691e-015 -1.35174e-014
lhumerus 1.30013 -69.7015 105.791
lradius 64.5481
lwrist 7.24902
lhand -22.6458 32.3858
lfingers 7.12502
lthumb 3.78517 62.3319
rfemur -13.3245 12.6324 14.9835
rtibia 27.7728
rfoot -10.1552 -11.3843
rtoes -2.00624
lfemur -10.8038 -3.14717 -8.09325
ltibia 24.8082
lfoot -16.7313 14.7622
ltoes 2.19455
1494
root 10.8165 18.2045 -10.5424 -359.827 -27.2999 1.00847
lowerback 2.91502 -2.11524 -7.14384
upperback 3.24679 -2.92564 -1.98245
thorax 1.97919 -1.60005 1.97296
lowerneck -3.0628 -11.1193 -9.16897
upperneck 23.7088 -17.7913 11.9189
head 9.92821 -8.2578 3.73111
rclavicle 2.28602e-014 -3.18055e-015
rhumerus 10.8379 -38.1252 -44.5731
rradius 26.1971
rwrist 17.1016
rhand -7.31482 30.7683
rfingers 7.12502
rthumb 18.568 1.6345
lclavicle 2.28602e-014 -3.18055e-015
lhumerus -0.164227 -69.669 107.287
lradius 64.3399
lwrist 6.82178
lhand -21.948 31.9015
lfingers 7.12502
lthumb 4.45898 61.8345
rfemur -13.6252 13.1175 15.0537
rtibia 27.6162
rfoot -10.0407 -11.6893
rtoes -2.63606
lfemur -11.1368 -2.60347 -7.88382
ltibia 24.8873
lfoot -15.9325 14.7124
ltoes -2.57829
1495
root 10.8222 18.2136 -10.5088 -359.407 -27.3231 0.731348
lowerback 2.71878 -2.06215 -6.96947
upperback 3.23149 -2.83465 -2.00923
thorax 2.05417 -1.55216 1.84113
lowerneck -3.79722 -10.5205 -8.37461
upperneck 22.9144 -16.9916 12.4912
head 9.66051 -7.75904 3.87453
rclavicle 3.51849e-014 2.94201e-014
rhumerus 7.75117 -35.6342 -43.3012
rradius 29.7251
rwrist 10.6217
rhand -8.75424 29.9419
rfingers 7.12502
rthumb 17.183 0.681698
lclavicle 3.51849e-014 2.94201e-014
lhumerus -1.95116 -69.8653 108.566
lradius 64.7387
lwrist 6.30229
lhand -18.7078 31.4188
lfingers 7.12502
lthumb 7.5872 61.2627
rfemur -13.7778 13.5781 15.2094
rtibia 27.4511
rfoot -9.94009 -12.0849
rtoes -1.9189
lfemur -11.2 -2.38984 -7.59251
ltibia 24.7873
lfoot -15.5241 14.3606
ltoes -4.93574
1496
root 10.8272 18.2249 -10.4544 -359.609 -27.2548 1.12483
lowerback 2.61072 -1.98844 -7.33521
upperback 3.31191 -2.72569 -2.17334
thorax 2.20115 -1.51031 1.86712
lowerneck -4.35098 -9.8789 -8.01859
upperneck 22.1272 -16.1727 13.353
head 9.43179 -7.27316 4.19458
rclavicle 1.15693e-013 1.90833e-014
rhumerus 4.48391 -32.9849 -41.8776
rradius 33.7124
rwrist 4.73833
rhand -9.66816 29.3893
rfingers 7.12502
rthumb 16.3032 0.0546337
lclavicle 1.15693e-013 1.90833e-014
lhumerus -4.35415 -69.7224 110.556
lradius 65.2346
lwrist 6.05044
lhand -13.8517 30.3676
lfingers 7.12502
lthumb 12.2721 59.9875
rfemur -13.4352 13.5233 14.7644
rtibia 27.2114
rfoot -10.0438 -12.1632
rtoes -1.79636
lfemur -10.9175 -2.5511 -8.03704
ltibia 24.685
lfoot -15.0839 13.9869
ltoes -6.86092
1497
root 10.831 18.2328 -10.4075 -359.606 -27.376 1.25538
lowerback 2.57213 -1.83204 -7.54265
upperback 3.21024 -2.52144 -2.22515
thorax 2.1073 -1.4072 1.93043
lowerneck -4.59345 -9.10385 -7.73883
upperneck 21.4098 -15.1592 14.1405
head 9.14196 -6.72414 4.54072
rclavicle -2.10712e-014 -1.59028e-014
rhumerus 1.06389 -30.5017 -40.5419
rradius 37.955
rwrist 0.093827
rhand -10.5784 29.3238
rfingers 7.12502
rthumb 15.4266 -0.0805277
lclavicle -2.10712e-014 -1.59028e-014
lhumerus -7.57488 -69.6799 113.267
lradius 65.9864
lwrist 6.66535
lhand -18.237 30.1696
lfingers 7.12502
lthumb 8.04159 59.9966
rfemur -13.2101 13.8501 14.5725
rtibia 26.9268
rfoot -10.0555 -12.4874
rtoes -2.81187
lfemur -10.8266 -2.74241 -8.22532
ltibia 24.5538
lfoot -14.7816 14.106
ltoes -8.65397
1498
root 10.8376 18.2307 -10.383 -358.909 -27.4714 0.404991
lowerback 2.58585 -1.69194 -6.98921
upperback 3.00335 -2.34143 -1.99567
thorax 1.85152 -1.29539 1.86773
lowerneck -4.86999 -8.22876 -7.25545
upperneck 20.7162 -13.954 14.6389
head 8.80156 -6.08988 4.76899
rclavicle 6.75868e-014 5.56597e-015
rhumerus -2.2522 -28.3565 -39.536
rradius 42.3307
rwrist -3.48106
rhand -12.2183 28.8419
rfingers 7.12502
rthumb 13.8466 -0.677192
lclavicle 6.75868e-014 5.56597e-015
lhumerus -10.3439 -70.0681 115.414
lradius 67.0083
lwrist 8.49385
lhand -21.8917 29.1917
lfingers 7.12502
lthumb 4.51338 59.1236
rfemur -13.3379 14.6773 15.3429
rtibia 26.6692
rfoot -9.69435 -13.3848
rtoes -4.16302
lfemur -10.9955 -2.86894 -7.35747
ltibia 24.2905
lfoot -14.9075 14.1633
ltoes -7.85455
1499
root 10.8486 18.2303 -10.3396 -358.576 -27.3017 0.200799
lowerback 2.44401 -1.69 -6.69784
upperback 2.90757 -2.32635 -2.05461
thorax 1.81429 -1.27804 1.64331
lowerneck -4.97845 -7.35688 -6.53789
upperneck 19.7855 -12.6966 14.906
head 8.31647 -5.44881 4.87618
rclavicle 2.8625e-014 -7.95139e-016
rhumerus -5.35973 -26.5264 -38.9514
rradius 46.6025
rwrist -5.77007
rhand -14.0284 28.2288
rfingers 7.12502
rthumb 12.1017 -1.40123
lclavicle 2.8625e-014 -7.95139e-016
lhumerus -13.7396 -69.4087 117.901
lradius 68.0449
lwrist 9.35486
lhand -22.8639 28.5946
lfingers 7.12502
lthumb 3.57456 58.5444
rfemur -13.3157 14.9646 15.4476
rtibia 26.4391
rfoot -9.51974 -13.946
rtoes -4.68381
lfemur -10.9311 -3.2846 -7.1794
ltibia 24.0059
lfoot -15.5933 13.9472
ltoes -6.23407
1500
root 10.8548 18.2394 -10.2757 -359.006 -27.0816 1.02392
lowerback 2.19545 -1.6331 -7.41731
upperback 3.03782 -2.22664 -2.25604
thorax 2.10591 -1.25232 1.82164
lowerneck -4.96496 -6.59243 -5.82823
upperneck 18.6832 -11.5251 14.9795
head 7.76578 -4.875 4.89697
rclavicle -9.14409e-015 5.56597e-015
rhumerus -8.32368 -25.1541 -38.2801
rradius 50.6634
rwrist -6.5137
rhand -15.4662 28.3542
rfingers 7.12502
rthumb 10.7151 -1.35258
lclavicle -9.14409e-015 5.56597e-015
lhumerus -16.222 -68.7792 119.83
lradius 68.8386
lwrist 9.85135
lhand -19.9361 28.8854
lfingers 7.12502
lthumb 6.40147 58.7687
rfemur -12.8466 14.8047 14.5838
rtibia 26.2082
rfoot -9.67622 -14.0471
rtoes -4.64976
lfemur -10.4599 -3.75075 -8.13582
ltibia 23.7728
lfoot -16.5697 13.6463
ltoes -3.66157
1501
root 10.855 18.2441 -10.228 -359.3 -27.0447 1.46652
lowerback 2.20866 -1.49084 -8.04297
upperback 3.04168 -2.04418 -2.24494
thorax 2.11408 -1.17536 2.17998
lowerneck -4.98719 -5.92672 -5.40445
upperneck 17.899 -10.5026 14.9829
head 7.37 -4.38336 4.9204
rclavicle 3.18055e-014 2.70347e-014
rhumerus -11.4516 -23.5571 -37.4531
rradius 54.7255
rwrist -6.72109
rhand -16.7601 28.812
rfingers 7.12502
rthumb 9.46681 -0.95539
lclavicle 3.18055e-014 2.70347e-014
lhumerus -18.6734 -68.2319 121.406
lradius 70.5432
lwrist 10.4101
lhand -13.228 29.3342
lfingers 7.12502
lthumb 12.8734 58.9172
rfemur -12.3997 14.7413 14.1535
rtibia 25.9758
rfoot -9.67715 -14.1568
rtoes -5.47357
lfemur -10.0263 -4.0462 -8.68796
ltibia 23.5086
lfoot -16.643 13.315
ltoes 0.721076
